<svg viewBox="0 0 512 512" xmlns="http://www.w3.org/2000/svg"><path d="m256 12c134.76 0 244 109.24 244 244s-109.24 244-244 244-244-109.24-244-244 109.24-244 244-244z" fill="#fff" fill-rule="evenodd" stroke="#e8204f" stroke-miterlimit="10" stroke-width="20"/><path d="m102.39 165.69v-57.57c0-.52 0-1.05 0-1.57 0-1.5.4-1.87 1.84-1.94h1.77 106.88a5.37 5.37 0 0 0 3.22-.54 3.41 3.41 0 0 1 2.12-.15c2.08.33 4-.58 5.9-1a23.19 23.19 0 0 0 10.62-5.4c2-1.77 3.66-4 3.54-6.88a7.37 7.37 0 0 0 -1.54-4.23 19.41 19.41 0 0 0 -5.3-4.83 25.81 25.81 0 0 1 -6.42-5c-1.5-1.74-3.14-3.45-3.09-6 0-.75-.56-1.53-.49-2.25.36-3.48 1.37-6.71 4-9.19a29.45 29.45 0 0 1 9.4-6.14 98.46 98.46 0 0 1 10.16-3.41c6.24-1.67 12.5-.72 18.74-.86a26.6 26.6 0 0 1 9.9 1.69c5.36 2 10.82 4 14.94 8.32 2.66 2.77 4.57 5.95 4.2 10a10.78 10.78 0 0 1 -1.78 5.26 22.56 22.56 0 0 1 -7.91 7.08 15 15 0 0 0 -6.09 5.92 6.43 6.43 0 0 0 -.75 5c1.19 4.28 4.42 6.43 7.85 8.45a25.52 25.52 0 0 0 8.71 2.86c1.87.32 3.79.19 5.55.66 4.79 1.29 9.62.59 14.42.6q47.82.15 95.63 0c1.61 0 2.94.38 3.66 1.72a9.28 9.28 0 0 1 .88 3.55c.14 1.63 0 3.28 0 4.92 0 .26.07.58 0 .78-1.09 2-.64 4.11-.65 6.17q0 40 0 80.05a5.18 5.18 0 0 0 .55 3.23c.28.42.15 1.14.15 1.73v13a8.23 8.23 0 0 0 .52 3.44 18.63 18.63 0 0 1 .77 3.78 23 23 0 0 0 6.3 11.65 7.8 7.8 0 0 0 11.33.21 28.76 28.76 0 0 0 3.64-4.57 36 36 0 0 1 5.28-6.5c1.74-1.6 3.67-2.93 6.18-3a5.89 5.89 0 0 0 1.1-.36 2.74 2.74 0 0 1 1.31-.22c2.5.79 5.25 1 7.29 2.92.7.66 1.31 1.43 1.95 2.15.34.4.62.85 1 1.22 3.09 3.14 4.69 7.06 5.94 11.18.43 1.4.93 2.78 1.34 4.18a6.92 6.92 0 0 1 .07 1.37 3.51 3.51 0 0 0 .13 1.36c1 1.81.9 3.79.92 5.74.05 3.68 0 7.36 0 11a41.88 41.88 0 0 1 -.26 5.49 38.1 38.1 0 0 1 -1.28 4.85 41.91 41.91 0 0 1 -1.54 5 50 50 0 0 1 -3.4 6.93c-2.28 3.67-5.36 6.66-9.54 8a9.59 9.59 0 0 1 -6.1-.27 13.68 13.68 0 0 1 -5.56-3.39 59.15 59.15 0 0 1 -3.92-4.84c-1.43-1.85-2.74-3.81-4.27-5.58a5.16 5.16 0 0 0 -4.31-1.92 12 12 0 0 1 -2.16 0 5.59 5.59 0 0 0 -4.62 1.7 19.24 19.24 0 0 0 -5.34 7.59 63.38 63.38 0 0 0 -2.21 8.38 38.66 38.66 0 0 0 -.52 8.95q-.08 52.54 0 105.09a17.39 17.39 0 0 1 0 1.77 2.43 2.43 0 0 1 -2.61 2.53c-.53 0-1.05 0-1.58 0h-111.69a27 27 0 0 1 -5.09-.37 22.38 22.38 0 0 1 -4.53-1.53c-2-.83-3.88-1.74-5.74-2.75a11.85 11.85 0 0 1 -5.75-6.12 5 5 0 0 1 -.48-1.82 18.74 18.74 0 0 1 .41-4.82c.94-3.21 3.54-5.11 6.31-6.63a24.89 24.89 0 0 0 7.23-6.21c2.35-2.88 2.66-6.23 1.59-9.88-1.21-4.11-4.25-6.42-7.51-8.61a33.42 33.42 0 0 0 -8.93-4.18 41.71 41.71 0 0 0 -4.3-.95 48.83 48.83 0 0 0 -7-1.19q-7-.3-14 0a32.75 32.75 0 0 0 -6.82 1.26 44 44 0 0 0 -5.83 2 34.78 34.78 0 0 0 -10.53 6.52 11.43 11.43 0 0 0 -3.58 6.53c-.7 4.34 1.08 7.93 4.21 10.94 2.41 2.32 5.37 3.87 8 5.92 1.48 1.17 2.93 2.38 3.52 4.29a6.74 6.74 0 0 1 .34 1.28c.06.59 0 1.19 0 1.78.47 4.08-1.67 6.76-4.74 9a35.1 35.1 0 0 1 -9.24 4.38 23.71 23.71 0 0 1 -7.85 1.21h-111.23c-3.18 0-3.23-.06-3.23-3.17q0-56.68 0-113.37a34.51 34.51 0 0 1 .13-3.94 13 13 0 0 1 .76-3c1.42-3.74 2.85-7.51 5.68-10.47a9.3 9.3 0 0 1 4.16-2.69 10.93 10.93 0 0 1 2.37-.67c3.31-.18 5.8 1.57 8 3.75a15.46 15.46 0 0 1 2 2.83c2.19 3.59 4.56 7 8.38 9.08a10.3 10.3 0 0 0 12.13-1.69 24.64 24.64 0 0 0 6.57-8.93c.75-1.83 1.31-3.74 2-5.61.42-1.17.87-2.32 1.31-3.48.07-.18.21-.36.2-.54a11.91 11.91 0 0 1 .65-3.36 47.24 47.24 0 0 0 .8-7.32c.12-2.43.57-5-.14-7.25-.76-2.36.18-4.88-1.18-7.06-.18-.29-.06-.77-.07-1.16a3.75 3.75 0 0 0 -.07-1.17c-1.17-3-2-6.17-3.43-9.12a30.68 30.68 0 0 0 -6.26-8.89 10.35 10.35 0 0 0 -8.52-3.09 12.22 12.22 0 0 0 -6.4 3.05 31 31 0 0 0 -5.89 7.5 13.14 13.14 0 0 1 -8.12 6.26c-2.3.57-4.45-.31-6.4-1.65a17.76 17.76 0 0 1 -4.93-5.9 39.13 39.13 0 0 1 -3.41-8.55 14.25 14.25 0 0 1 -.25-4.3q-.07-28-.07-56z" fill="#f10046"/><path d="m332.27 193.27-61.65-35.59a20.1 20.1 0 0 0 -18.07 0l-61.65 35.59a20.11 20.11 0 0 0 -9 15.66v71.18a20.09 20.09 0 0 0 9 15.63l6.87 4 63.83 38.4 63.86-38.35 6.78-3.9a20.12 20.12 0 0 0 9-15.63v-71.36a20.11 20.11 0 0 0 -8.97-15.63z" fill="#fff"/><path d="m333.52 192-63.15-36.5a20.59 20.59 0 0 0 -18.51 0l-63.15 36.5a20.61 20.61 0 0 0 -9.24 16v72.93a20.57 20.57 0 0 0 9.24 16l7 4.07 65.39 39.34 65.42-39.29 6.95-4a20.6 20.6 0 0 0 9.24-16v-73.05a20.63 20.63 0 0 0 -9.19-16zm-110 91.82a8.32 8.32 0 0 1 -5.88-2.47l-31.23-31.25a8.43 8.43 0 0 1 0-11.78l31.23-31.4a8.42 8.42 0 1 1 13.53 10 8.68 8.68 0 0 1 -1.76 1.77l-25.34 25.31 25.28 25.28a8.42 8.42 0 0 1 -5.8 14.48zm24.19 7.39a8.42 8.42 0 1 1 -15.21-7.21l42.9-91.23a8.42 8.42 0 1 1 15.25 7.15zm88.14-41.21-31.31 31.31a8.42 8.42 0 0 1 -13.54-10 8.21 8.21 0 0 1 1.77-1.76l25.36-25.37-25.42-25.48a8.43 8.43 0 0 1 0-11.78 8.63 8.63 0 0 1 11.77 0l31.25 31.23a8.42 8.42 0 0 1 .12 11.89z" fill="#4367b1"/><path d="m386 338.08 4.56-9a3 3 0 0 0 -1.06-3.65l-9.77-5.88a33.61 33.61 0 0 0 .7-9.27l10.57-4.28a2.94 2.94 0 0 0 1.59-3.44l-3.15-9.6a2.94 2.94 0 0 0 -3.33-1.85l-11.11 2.73a34.09 34.09 0 0 0 -6.06-7.06l4.41-10.5a2.93 2.93 0 0 0 -1.32-3.56l-9-4.57a3 3 0 0 0 -3.65 1.06l-5.87 9.79a34 34 0 0 0 -9.27-.7l-4.3-10.57a3 3 0 0 0 -3.44-1.59l-9.6 3.15a3 3 0 0 0 -1.85 3.33l2.77 11.06a34.15 34.15 0 0 0 -7.07 6.06l-10.5-4.41a2.94 2.94 0 0 0 -3.56 1.32l-4.57 9a3 3 0 0 0 1.06 3.65l9.77 5.88a33.61 33.61 0 0 0 -.7 9.27l-10.54 4.27a3 3 0 0 0 -1.59 3.44l3.15 9.6a3 3 0 0 0 3.33 1.85l11.06-2.76a33.84 33.84 0 0 0 6.07 7.06l-4.42 10.5a2.94 2.94 0 0 0 1.33 3.57l9 4.56a3 3 0 0 0 3.65-1.06l5.88-9.77a34 34 0 0 0 9.27.7l4.3 10.57a2.8 2.8 0 0 0 3.44 1.59l9.6-3.15a2.94 2.94 0 0 0 1.85-3.33l-2.82-11.09a34.09 34.09 0 0 0 7.06-6.06l10.59 4.35a3 3 0 0 0 3.54-1.21zm-28.26-20a12.73 12.73 0 1 1 .74-9.71 12.72 12.72 0 0 1 -.74 9.71z" fill="#fff"/></svg>